nColumns=19
nRows=142
DataType=double
version=3
OpenSimVersion=4.1
endheader
time	ground_force_calcn_r_vx	ground_force_calcn_r_vy	ground_force_calcn_r_vz	ground_force_calcn_r_px	ground_force_calcn_r_py	ground_force_calcn_r_pz	ground_force_calcn_r_mx	ground_force_calcn_r_my	ground_force_calcn_r_mz	ground_force_calcn_l_vx	ground_force_calcn_l_vy	ground_force_calcn_l_vz	ground_force_calcn_l_px	ground_force_calcn_l_py	ground_force_calcn_l_pz	ground_force_calcn_l_mx	ground_force_calcn_l_my	ground_force_calcn_l_mz
2.12	0	0	0	0	0	0	0	0	0	0	0	0	0	0	0	0	0	0
2.125	0	0	0	0	0	0	0	0	0	0	0	0	0	0	0	0	0	0
2.13	0	0	0	0	0	0	0	0	0	0	0	0	0	0	0	0	0	0
2.135	0	0	0	0	0	0	0	0	0	0	0	0	0	0	0	0	0	0
2.14	0	0	0	0	0	0	0	0	0	0	0	0	0	0	0	0	0	0
2.145	0	0	0	0	0	0	0	0	0	0	0	0	0	0	0	0	0	0
2.15	0	0	0	0	0	0	0	0	0	0	0	0	0	0	0	0	0	0
2.155	0	0	0	0	0	0	0	0	0	0	0	0	0	0	0	0	0	0
2.16	0	0	0	0	0	0	0	0	0	0	0	0	0	0	0	0	0	0
2.165	0	0	0	0	0	0	0	0	0	0	0	0	0	0	0	0	0	0
2.17	0	0	0	0	0	0	0	0	0	0	0	0	0	0	0	0	0	0
2.175	0	0	0	0	0	0	0	0	0	0	0	0	0	0	0	0	0	0
2.18	0	0	0	0	0	0	0	0	0	0	0	0	0	0	0	0	0	0
2.185	0	0	0	0	0	0	0	0	0	0	0	0	0	0	0	0	0	0
2.19	0	0	0	0	0	0	0	0	0	0	0	0	0	0	0	0	0	0
2.195	0	0	0	0	0	0	0	0	0	-31.4063	29.1413	-15.0408	1.26251	0	-0.254709	3.09283	-2.86977	1.48119
2.2	0	0	0	0	0	0	0	0	0	-101.275	150.865	2.49449	1.22317	0	-0.355063	5.27657	-7.86026	-0.129966
2.205	0	0	0	0	0	0	0	0	0	-190.441	353.866	36.0257	1.16423	0	-0.390654	3.25287	-6.04429	-0.615347
2.21	0	0	0	0	0	0	0	0	0	-280.971	630.257	89.8644	1.15603	0	-0.381923	-0.454844	1.02028	0.145475
2.215	0	0	0	0	0	0	0	0	0	-341.188	942.6	157.684	1.14326	0	-0.371058	-4.18154	11.5523	1.93255
2.22	0	0	0	0	0	0	0	0	0	-351.422	1265.04	212.826	1.12443	0	-0.359341	-4.5804	16.4885	2.77396
2.225	0	0	0	0	0	0	0	0	0	-332.399	1592.36	227.58	1.09185	0	-0.348894	-1.3976	6.69518	0.956878
2.23	0	0	0	0	0	0	0	0	0	-314.732	1909.17	186.316	1.05019	0	-0.342309	1.72022	-10.4349	-1.01834
2.235	0	0	0	0	0	0	0	0	0	-302.998	2189.35	96.4562	1.0143	0	-0.339215	2.584	-18.671	-0.822588
2.24	0	0	0	0	0	0	0	0	0	-303.234	2423.02	-13.0272	0.989281	0	-0.337595	1.70921	-13.6576	0.0734288
2.245	0	0	0	0	0	0	0	0	0	-318.292	2612.5	-109.976	0.97271	0	-0.335825	0.440837	-3.61833	0.152318
2.25	0	0	0	0	0	0	0	0	0	-333.685	2760.27	-174.882	0.959868	0	-0.333476	-0.0312564	0.258556	-0.0163812
2.255	0	0	0	0	0	0	0	0	0	-330.696	2869.65	-199.003	0.94286	0	-0.331058	0.485939	-4.21678	0.292424
2.26	0	0	0	0	0	0	0	0	0	-285.128	2933.57	-184.828	0.916456	0	-0.32956	0.80168	-8.24817	0.519672
2.265	0	0	0	0	0	0	0	0	0	-183.153	2944.46	-149.531	0.880415	0	-0.329572	0.350435	-5.63376	0.286104
2.27	0	0	0	0	0	0	0	0	0	-44.264	2909.89	-112.961	0.838031	0	-0.330351	0.00544683	-0.358072	0.0139002
2.275	0	0	0	0	0	0	0	0	0	94.4723	2843.18	-88.9392	0.796078	0	-0.331065	0.110871	3.33671	-0.104378
2.28	0	0	0	0	0	0	0	0	0	209.471	2747.35	-75.1941	0.760552	0	-0.331167	0.343769	4.50875	-0.123403
2.285	0	0	0	0	0	0	0	0	0	297.108	2624.59	-60.7841	0.733543	0	-0.33065	0.237997	2.10242	-0.0486908
2.29	0	0	0	0	0	0	0	0	0	362.447	2473.22	-37.5468	0.713241	0	-0.329644	-0.631312	-4.30787	0.0653992
2.295	0	0	0	0	0	0	0	0	0	411.625	2284.44	-9.77535	0.696111	0	-0.328754	-2.79585	-15.5165	0.0663964
2.3	0	0	0	0	0	0	0	0	0	447.612	2047.02	11.7074	0.677128	0	-0.329092	-6.81306	-31.1576	-0.178198
2.305	0	0	0	0	0	0	0	0	0	473.293	1753.4	14.6599	0.649375	0	-0.331385	-10.822	-40.092	-0.335203
2.31	0	0	0	0	0	0	0	0	0	489.826	1403.97	-8.25435	0.601525	0	-0.334921	-10.2059	-29.253	0.171987
2.315	0	0	0	0	0	0	0	0	0	492.924	1019.9	-53.427	0.516038	0	-0.335093	0.87229	1.80483	-0.0945455
2.32	0	0	0	0	0	0	0	0	0	475.369	646.542	-101.461	0.371571	0	-0.310533	27.4568	37.3436	-5.86027
2.325	0	0	0	0	0	0	0	0	0	429.49	336.689	-129.199	0.147368	0	-0.206888	59.0871	46.3201	-17.7745
2.33	0	0	0	0	0	0	0	0	0	351.177	124.123	-120.492	0.321863	0	0.0662541	53.551	18.9275	-18.3738
2.335	0	0	0	0	0	0	0	0	0	0	0	0	0	0	0	0	0	0
2.34	0	0	0	0	0	0	0	0	0	0	0	0	0	0	0	0	0	0
2.345	0	0	0	0	0	0	0	0	0	0	0	0	0	0	0	0	0	0
2.35	0	0	0	0	0	0	0	0	0	0	0	0	0	0	0	0	0	0
2.355	0	0	0	0	0	0	0	0	0	0	0	0	0	0	0	0	0	0
2.36	0	0	0	0	0	0	0	0	0	0	0	0	0	0	0	0	0	0
2.365	0	0	0	0	0	0	0	0	0	0	0	0	0	0	0	0	0	0
2.37	0	0	0	0	0	0	0	0	0	0	0	0	0	0	0	0	0	0
2.375	0	0	0	0	0	0	0	0	0	0	0	0	0	0	0	0	0	0
2.38	0	0	0	0	0	0	0	0	0	0	0	0	0	0	0	0	0	0
2.385	0	0	0	0	0	0	0	0	0	0	0	0	0	0	0	0	0	0
2.39	0	0	0	0	0	0	0	0	0	0	0	0	0	0	0	0	0	0
2.395	0	0	0	0	0	0	0	0	0	0	0	0	0	0	0	0	0	0
2.4	0	0	0	0	0	0	0	0	0	0	0	0	0	0	0	0	0	0
2.405	0	0	0	0	0	0	0	0	0	0	0	0	0	0	0	0	0	0
2.41	0	0	0	0	0	0	0	0	0	0	0	0	0	0	0	0	0	0
2.415	0	0	0	0	0	0	0	0	0	0	0	0	0	0	0	0	0	0
2.42	0	0	0	0	0	0	0	0	0	0	0	0	0	0	0	0	0	0
2.425	0	0	0	0	0	0	0	0	0	0	0	0	0	0	0	0	0	0
2.43	0	0	0	0	0	0	0	0	0	0	0	0	0	0	0	0	0	0
2.435	0	0	0	0	0	0	0	0	0	0	0	0	0	0	0	0	0	0
2.44	0	0	0	0	0	0	0	0	0	0	0	0	0	0	0	0	0	0
2.445	0	0	0	0	0	0	0	0	0	0	0	0	0	0	0	0	0	0
2.45	0	0	0	0	0	0	0	0	0	0	0	0	0	0	0	0	0	0
2.455	0	0	0	0	0	0	0	0	0	0	0	0	0	0	0	0	0	0
2.46	-53.6803	119.121	-16.981	1.2398	0	-0.227296	-1.03044	2.28663	-0.325965	0	0	0	0	0	0	0	0	0
2.465	-108.279	319.497	-64.82	1.08814	0	-0.204296	-0.761146	2.24589	-0.455651	0	0	0	0	0	0	0	0	0
2.47	-179.574	610.204	-134.572	1.08704	0	-0.218443	-0.963882	3.27532	-0.722328	0	0	0	0	0	0	0	0	0
2.475	-240.984	960.429	-215.274	1.08585	0	-0.229128	-0.536806	2.13941	-0.479535	0	0	0	0	0	0	0	0	0
2.48	-263.759	1341.46	-282.255	1.08192	0	-0.23867	-0.0816891	0.415464	-0.0874173	0	0	0	0	0	0	0	0	0
2.485	-256.676	1739.64	-304.424	1.07282	0	-0.247316	-0.955335	6.47488	-1.13305	0	0	0	0	0	0	0	0	0
2.49	-270.038	2126.88	-263.926	1.0591	0	-0.253717	-2.29269	18.0577	-2.2408	0	0	0	0	0	0	0	0	0
2.495	-335.584	2450.33	-169.861	1.04769	0	-0.257511	-3.12035	22.7838	-1.57942	0	0	0	0	0	0	0	0	0
2.5	-435.877	2677.47	-48.3816	1.04085	0	-0.259541	-3.31967	20.3918	-0.368478	0	0	0	0	0	0	0	0	0
2.505	-523.686	2826.26	76.7231	1.0341	0	-0.260803	-3.60937	19.4792	0.528793	0	0	0	0	0	0	0	0	0
2.51	-561.972	2930.68	180.603	1.02182	0	-0.262021	-4.34411	22.6545	1.39608	0	0	0	0	0	0	0	0	0
2.515	-545.751	3002.21	239.176	1.00037	0	-0.262881	-4.27573	23.5211	1.87385	0	0	0	0	0	0	0	0	0
2.52	-479.593	3033.07	239.923	0.969522	0	-0.26323	-2.27939	14.4154	1.1403	0	0	0	0	0	0	0	0	0
2.525	-364.103	3021.41	194.721	0.930587	0	-0.263704	-0.132826	1.10222	0.0710351	0	0	0	0	0	0	0	0	0
2.53	-212.794	2979.97	133.154	0.887323	0	-0.264854	0.146939	-2.05774	-0.0919459	0	0	0	0	0	0	0	0	0
2.535	-56.9856	2918.84	81.7616	0.846498	0	-0.265961	-0.121171	6.20644	0.173853	0	0	0	0	0	0	0	0	0
2.54	76.0224	2833.73	47.2848	0.811848	0	-0.266484	0.391016	14.5751	0.243206	0	0	0	0	0	0	0	0	0
2.545	187.002	2716.59	21.5559	0.783519	0	-0.266537	1.24196	18.0422	0.143163	0	0	0	0	0	0	0	0	0
2.55	289.928	2560.02	-7.13834	0.759437	0	-0.266518	2.4786	21.8857	-0.0610259	0	0	0	0	0	0	0	0	0
2.555	383.669	2350.8	-41.1493	0.735134	0	-0.266254	5.26517	32.2605	-0.564701	0	0	0	0	0	0	0	0	0
2.56	453.217	2078.83	-69.5418	0.705585	0	-0.265167	10.3538	47.4909	-1.58868	0	0	0	0	0	0	0	0	0
2.565	491.636	1755.47	-69.3739	0.667062	0	-0.26298	15.5321	55.4598	-2.1917	0	0	0	0	0	0	0	0	0
2.57	504.25	1409.51	-22.9617	0.615809	0	-0.26182	14.8806	41.5952	-0.677608	0	0	0	0	0	0	0	0	0
2.575	492.807	1065.16	59.5303	0.5465	0	-0.269249	1.42206	3.07366	0.171782	0	0	0	0	0	0	0	0	0
2.58	454.362	740.678	141.433	0.456667	0	-0.302545	-27.1828	-44.312	-8.4614	0	0	0	0	0	0	0	0	0
2.585	390.892	455.703	182.8	0.340941	0	-0.389435	-59.2529	-69.0772	-27.7095	0	0	0	0	0	0	0	0	0
2.59	315.972	230.494	164.569	0.14888	0	-0.554825	-69.357	-50.5942	-36.1236	0	0	0	0	0	0	0	0	0
2.595	243.066	79.5999	94.4705	0.52606	0	-0.719709	-37.3028	-12.216	-14.4982	0	0	0	0	0	0	0	0	0
2.6	0	0	0	0	0	0	0	0	0	0	0	0	0	0	0	0	0	0
2.605	0	0	0	0	0	0	0	0	0	0	0	0	0	0	0	0	0	0
2.61	0	0	0	0	0	0	0	0	0	0	0	0	0	0	0	0	0	0
2.615	0	0	0	0	0	0	0	0	0	0	0	0	0	0	0	0	0	0
2.62	0	0	0	0	0	0	0	0	0	0	0	0	0	0	0	0	0	0
2.625	0	0	0	0	0	0	0	0	0	0	0	0	0	0	0	0	0	0
2.63	0	0	0	0	0	0	0	0	0	0	0	0	0	0	0	0	0	0
2.635	0	0	0	0	0	0	0	0	0	0	0	0	0	0	0	0	0	0
2.64	0	0	0	0	0	0	0	0	0	0	0	0	0	0	0	0	0	0
2.645	0	0	0	0	0	0	0	0	0	0	0	0	0	0	0	0	0	0
2.65	0	0	0	0	0	0	0	0	0	0	0	0	0	0	0	0	0	0
2.655	0	0	0	0	0	0	0	0	0	0	0	0	0	0	0	0	0	0
2.66	0	0	0	0	0	0	0	0	0	0	0	0	0	0	0	0	0	0
2.665	0	0	0	0	0	0	0	0	0	0	0	0	0	0	0	0	0	0
2.67	0	0	0	0	0	0	0	0	0	0	0	0	0	0	0	0	0	0
2.675	0	0	0	0	0	0	0	0	0	0	0	0	0	0	0	0	0	0
2.68	0	0	0	0	0	0	0	0	0	0	0	0	0	0	0	0	0	0
2.685	0	0	0	0	0	0	0	0	0	0	0	0	0	0	0	0	0	0
2.69	0	0	0	0	0	0	0	0	0	0	0	0	0	0	0	0	0	0
2.695	0	0	0	0	0	0	0	0	0	0	0	0	0	0	0	0	0	0
2.7	0	0	0	0	0	0	0	0	0	0	0	0	0	0	0	0	0	0
2.705	0	0	0	0	0	0	0	0	0	0	0	0	0	0	0	0	0	0
2.71	0	0	0	0	0	0	0	0	0	0	0	0	0	0	0	0	0	0
2.715	0	0	0	0	0	0	0	0	0	0	0	0	0	0	0	0	0	0
2.72	0	0	0	0	0	0	0	0	0	0	0	0	0	0	0	0	0	0
2.725	0	0	0	0	0	0	0	0	0	0	0	0	0	0	0	0	0	0
2.73	0	0	0	0	0	0	0	0	0	0	0	0	0	0	0	0	0	0
2.735	0	0	0	0	0	0	0	0	0	-47.0379	17.7891	-6.98586	1.27794	0	-0.00573106	6.54056	-2.47354	0.971374
2.74	0	0	0	0	0	0	0	0	0	-111.839	148.518	3.2816	1.24722	0	-0.364346	6.69207	-8.8868	-0.196359
2.745	0	0	0	0	0	0	0	0	0	-191.032	374.938	32.2539	1.16227	0	-0.410493	4.49643	-8.82515	-0.75918
2.75	0	0	0	0	0	0	0	0	0	-270.516	695.082	91.5358	1.1323	0	-0.401061	0.835986	-2.14804	-0.282877
2.755	0	0	0	0	0	0	0	0	0	-323.715	1071.72	175.239	1.11073	0	-0.388983	-2.81695	9.32604	1.52492
2.76	0	0	0	0	0	0	0	0	0	-332.516	1476.38	252.092	1.09091	0	-0.375579	-3.06875	13.6253	2.32653
2.765	0	0	0	0	0	0	0	0	0	-320.755	1897.75	286.634	1.06514	0	-0.362837	0.117331	-0.694192	-0.10485
2.77	0	0	0	0	0	0	0	0	0	-322.009	2300.07	253.956	1.03688	0	-0.35305	3.49401	-24.9573	-2.75559
2.775	0	0	0	0	0	0	0	0	0	-339.654	2624.65	149.771	1.01715	0	-0.346693	5.22604	-40.3838	-2.30442
2.78	0	0	0	0	0	0	0	0	0	-380.998	2844.55	0.618583	1.00608	0	-0.34316	5.35527	-39.9827	-0.00869475
2.785	0	0	0	0	0	0	0	0	0	-441.006	2974.02	-142.909	0.998088	0	-0.341587	4.01172	-27.0538	1.3
2.79	0	0	0	0	0	0	0	0	0	-480.044	3043.62	-232.552	0.989695	0	-0.340825	1.8169	-11.5196	0.880175
2.795	0	0	0	0	0	0	0	0	0	-468.178	3082.89	-249.346	0.974839	0	-0.339857	0.477374	-3.14345	0.254243
2.8	0	0	0	0	0	0	0	0	0	-396.088	3095.62	-208.162	0.948516	0	-0.338912	0.40022	-3.12792	0.210333
2.805	0	0	0	0	0	0	0	0	0	-268.613	3066.15	-144.816	0.911473	0	-0.339127	0.350378	-3.99948	0.188898
2.81	0	0	0	0	0	0	0	0	0	-113.021	2994.52	-89.5194	0.868298	0	-0.340445	-0.0510199	1.35178	-0.0404107
2.815	0	0	0	0	0	0	0	0	0	33.6806	2898.04	-52.8035	0.826443	0	-0.341544	0.0976823	8.40505	-0.153144
2.82	0	0	0	0	0	0	0	0	0	150.189	2785.08	-26.5851	0.792155	0	-0.341303	0.301072	5.58304	-0.053293
2.825	0	0	0	0	0	0	0	0	0	239.68	2655.6	3.25129	0.767303	0	-0.339868	-1.0544	-11.6825	-0.0143031
